<?xml version="1.0" encoding="UTF-8" standalone="no"?>
<!-- Created with Inkscape (http://www.inkscape.org/) -->

<svg
   xmlns:dc="http://purl.org/dc/elements/1.1/"
   xmlns:cc="http://creativecommons.org/ns#"
   xmlns:rdf="http://www.w3.org/1999/02/22-rdf-syntax-ns#"
   xmlns:svg="http://www.w3.org/2000/svg"
   xmlns="http://www.w3.org/2000/svg"
   xmlns:xlink="http://www.w3.org/1999/xlink"
   xmlns:sodipodi="http://sodipodi.sourceforge.net/DTD/sodipodi-0.dtd"
   xmlns:inkscape="http://www.inkscape.org/namespaces/inkscape"
   width="400mm"
   height="60mm"
   viewBox="0 0 1417.3228 212.59842"
   id="svg2"
   version="1.1"
   inkscape:version="0.91 r13725"
   sodipodi:docname="header_background.svg">
  <defs
     id="defs4">
    <linearGradient
       inkscape:collect="always"
       id="linearGradient4157">
      <stop
         style="stop-color:#00b4ff;stop-opacity:1"
         offset="0"
         id="stop4159" />
      <stop
         style="stop-color:#fffceb;stop-opacity:0.38039216"
         offset="1"
         id="stop4161" />
    </linearGradient>
    <radialGradient
       inkscape:collect="always"
       xlink:href="#linearGradient4157"
       id="radialGradient4163"
       cx="832.91101"
       cy="1299.7086"
       fx="832.91101"
       fy="1299.7086"
       r="708.8311"
       gradientTransform="matrix(1.2652202,0.52540069,-0.6276965,1.5115597,733.49842,-1476.4143)"
       gradientUnits="userSpaceOnUse" />
    <pattern
       y="0"
       x="0"
       height="6"
       width="6"
       patternUnits="userSpaceOnUse"
       id="EMFhbasepattern" />
  </defs>
  <sodipodi:namedview
     id="base"
     pagecolor="#ffffff"
     bordercolor="#666666"
     borderopacity="1.0"
     inkscape:pageopacity="0.0"
     inkscape:pageshadow="2"
     inkscape:zoom="0.49497475"
     inkscape:cx="754.41973"
     inkscape:cy="392.27959"
     inkscape:document-units="px"
     inkscape:current-layer="layer1"
     showgrid="false"
     inkscape:window-width="1366"
     inkscape:window-height="706"
     inkscape:window-x="-8"
     inkscape:window-y="-8"
     inkscape:window-maximized="1" />
  <metadata
     id="metadata7">
    <rdf:RDF>
      <cc:Work
         rdf:about="">
        <dc:format>image/svg+xml</dc:format>
        <dc:type
           rdf:resource="http://purl.org/dc/dcmitype/StillImage" />
        <dc:title />
      </cc:Work>
    </rdf:RDF>
  </metadata>
  <g
     inkscape:label="Layer 1"
     inkscape:groupmode="layer"
     id="layer1"
     transform="translate(0,-839.76381)">
    <path
       inkscape:connector-curvature="0"
       style="fill:url(#radialGradient4163);stroke:#00a5b7;stroke-width:1px;stroke-linejoin:round;stroke-opacity:1;fill-opacity:1"
       d="m 0.52110367,840.34718 1416.66219633,0 0,211.28192 -1416.66219633,0 z"
       id="path4-8-01"
       sodipodi:nodetypes="ccccc" />
    <path
       inkscape:connector-curvature="0"
       id="path4143"
       d="m 616.2465,874.05925 c -1.26953,2.44712 -0.4855,6.16452 1.43562,8.14304 2.89914,2.98574 8.09209,2.99376 12.23154,2.53967 2.79708,-0.30684 7.69503,-3.46685 7.69503,-3.46685 0,0 0.47983,3.19781 1.37816,4.47461 2.00948,2.85608 4.9822,5.48814 8.38412,6.28871 5.22801,1.23031 11.00375,-0.58798 15.84929,-2.90248 1.82301,-0.87077 4.59407,-3.9506 4.59407,-3.9506 0,0 4.66655,3.23404 7.35038,3.99092 6.41944,1.81039 13.58254,2.9216 19.9838,1.04812 3.18829,-0.93313 6.66764,-2.8095 8.09701,-5.80493 0.7016,-1.47029 -0.28712,-4.87779 -0.28712,-4.87779 0,0 4.43858,2.2191 6.83364,2.21719 3.4233,-0.003 7.82085,-0.36868 9.76233,-3.18468 0.88618,-1.28534 0.23379,-3.18583 -0.22979,-4.67617 -0.35658,-1.14636 -1.89504,-3.06374 -1.89504,-3.06374 0,0 2.65259,-1.31998 3.33069,-2.53961 1.27286,-2.28938 2.23091,-5.66196 0.74652,-7.82055 -2.23895,-3.25586 -7.4732,-3.22866 -11.42768,-3.18466 -2.04011,0.0227 -5.8574,1.77374 -5.8574,1.77374 0,0 2.13196,-3.48714 1.49305,-5.15992 -1.65942,-4.34473 -7.35113,-6.14615 -11.82965,-7.41744 -5.72636,-1.62551 -12.20209,-1.73116 -17.85906,0.12094 -2.96443,0.97056 -7.58009,5.48245 -7.58009,5.48245 0,0 -4.09007,-3.33114 -6.54651,-4.11184 -5.15153,-1.63725 -10.90127,-1.98733 -16.19385,-0.88686 -4.69708,0.97665 -10.47319,2.29503 -12.86327,6.44994 -1.06775,1.85619 0.40198,6.4096 0.40198,6.4096 0,0 -5.51458,-2.46925 -8.44147,-2.41874 -3.9641,0.0684 -9.28976,0.26291 -11.31278,3.66841 -1.21545,2.04606 -0.0879,5.09578 1.32078,7.01428 1.45064,1.97569 6.48907,3.46682 6.48907,3.46682 0,0 -4.19668,0.72711 -5.05337,2.37842 z"
       style="fill:#e1e1e1;fill-opacity:0.63247866;fill-rule:evenodd;stroke:#333333;stroke-width:0.27516463px;stroke-linecap:butt;stroke-linejoin:round;stroke-miterlimit:4;stroke-dasharray:none;stroke-opacity:1"
       sodipodi:nodetypes="aaacaaacaaacaaacaaacaaacaaacaaaca" />
    <path
       style="fill:#e1e1e1;fill-opacity:0.63247866;fill-rule:evenodd;stroke:#333333;stroke-width:0.27516463px;stroke-linecap:butt;stroke-linejoin:round;stroke-miterlimit:4;stroke-dasharray:none;stroke-opacity:1"
       d="m 678.97217,885.38945 c -1.00506,3.1864 -0.59835,7.46336 1.75663,9.85986 3.54617,3.60867 9.90117,3.62473 14.96663,3.07512 3.42381,-0.3715 9.41571,-4.19778 9.41571,-4.19778 0,0 0.4198,4.01318 1.68632,5.418 2.49154,2.76361 6.54107,4.24847 10.2589,4.40029 4.86184,0.19855 13.84019,-4.64127 13.84019,-4.64127 0,0 2.6023,4.07072 4.62524,5.21242 5.47214,3.08834 12.26285,3.7654 18.537,3.4232 5.66151,-0.30879 11.92825,-1.26936 16.29176,-4.88981 1.49826,-1.24312 2.68242,-5.18801 2.68242,-5.18801 0,0 9.88189,6.11297 15.18649,5.31904 4.7412,-0.7096 9.63102,-4.14291 11.58688,-8.5198 1.00212,-2.24258 -0.70847,-7.33477 -0.70847,-7.33477 0,0 5.75275,5.44285 9.43318,5.89894 4.15232,0.51456 8.67086,-1.25134 11.94525,-3.85611 1.08658,-0.86437 1.82689,-2.22155 2.13823,-3.57463 0.43495,-1.89027 0.2645,-4.01625 -0.50417,-5.7971 -0.38652,-0.8955 -1.94736,-2.18395 -1.94736,-2.18395 0,0 2.71468,-4.6916 2.12321,-7.08374 -0.59387,-2.40189 -2.83329,-4.56728 -5.21255,-5.34711 -4.23671,-1.38865 -13.21576,2.14769 -13.21576,2.14769 0,0 1.05238,-7.15641 -0.89495,-9.82623 -2.94772,-4.04142 -8.82165,-5.9511 -13.87002,-5.99923 -4.06737,-0.0388 -11.26749,4.61948 -11.26749,4.61948 0,0 -4.09676,-6.45788 -7.3594,-8.16166 -5.06141,-2.64313 -11.32096,-2.5516 -17.03713,-2.1976 -6.62855,0.4105 -13.76405,1.31492 -19.27788,4.9657 -2.05611,1.36139 -4.45883,5.86032 -4.45883,5.86032 0,0 -9.61751,-4.53824 -14.67366,-4.05586 -5.84607,0.55774 -12.81573,2.78711 -15.73961,7.80979 -1.30865,2.24802 0.49187,7.76096 0.49187,7.76096 0,0 -6.74706,-2.98984 -10.32906,-2.9287 -4.85161,0.0828 -11.36706,0.32671 -13.84244,4.44182 -1.49026,2.47744 -0.0464,6.12466 1.61613,8.49313 1.22502,1.74518 5.52066,3.30312 5.52066,3.30312 0,0 -3.23247,2.08961 -3.76392,3.77448 z"
       id="path4151"
       inkscape:connector-curvature="0"
       sodipodi:nodetypes="aaacaacaaacaacaaaacaacaacaaacaacaaaca" />
    <path
       sodipodi:nodetypes="aaacaaacaaacaaacaaacaaacaaacaaaca"
       style="fill:#e1e1e1;fill-opacity:0.63247866;fill-rule:evenodd;stroke:#333333;stroke-width:0.27516463px;stroke-linecap:butt;stroke-linejoin:round;stroke-miterlimit:4;stroke-dasharray:none;stroke-opacity:1"
       d="m 815.53156,855.77861 c -0.57668,1.07672 -0.22054,2.71235 0.65213,3.58289 1.31693,1.31371 3.67582,1.31724 5.55616,1.11743 1.27058,-0.13501 3.49547,-1.52538 3.49547,-1.52538 0,0 0.21796,1.40702 0.62602,1.9688 0.91281,1.25666 2.26316,2.41474 3.80849,2.76699 2.37482,0.54133 4.99845,-0.25871 7.19953,-1.27707 0.8281,-0.38313 2.08686,-1.73825 2.08686,-1.73825 0,0 2.11977,1.42297 3.33889,1.75599 2.91603,0.79656 6.16987,1.28548 9.07764,0.46116 1.44828,-0.41057 3.02876,-1.23616 3.67798,-2.55413 0.3188,-0.64692 -0.1303,-2.1462 -0.1303,-2.1462 0,0 2.0162,0.97639 3.1041,0.97555 1.5551,-0.002 3.5527,-0.16222 4.4346,-1.40124 0.4025,-0.56554 0.1061,-1.40174 -0.1044,-2.05748 -0.1619,-0.5044 -0.8608,-1.34803 -0.8608,-1.34803 0,0 1.2049,-0.58078 1.513,-1.11742 0.5781,-1.00731 1.0133,-2.49122 0.339,-3.44099 -1.017,-1.43255 -3.3946,-1.42059 -5.191,-1.40123 -0.9267,0.01 -2.6607,0.78044 -2.6607,0.78044 0,0 0.9684,-1.53432 0.6783,-2.27034 -0.7539,-1.91165 -3.33934,-2.70426 -5.3737,-3.26362 -2.6012,-0.71522 -5.54279,-0.76171 -8.11246,0.0532 -1.34659,0.42704 -3.44326,2.41224 -3.44326,2.41224 0,0 -1.85791,-1.46567 -2.97374,-1.80918 -2.34008,-0.72037 -4.9519,-0.87442 -7.35605,-0.39021 -2.13364,0.42972 -4.75745,1.0098 -5.84313,2.83793 -0.48502,0.81672 0.18259,2.82019 0.18259,2.82019 0,0 -2.50499,-1.08646 -3.83452,-1.06424 -1.8007,0.0301 -4.21988,0.11568 -5.13883,1.61409 -0.55212,0.90024 -0.0399,2.24211 0.59996,3.08623 0.65896,0.86929 2.94765,1.52538 2.94765,1.52538 0,0 -1.90633,0.31992 -2.29548,1.0465 z"
       id="path4153"
       inkscape:connector-curvature="0" />
    <path
       inkscape:connector-curvature="0"
       id="path4325"
       d="m 963.33063,878.46351 -3.9593,-1.20487 2.611,-3.49321 9.2721,-0.39216 -5.5264,-3.93167 1.1251,-3.46446 4.2239,-0.0688 4.1159,6.56804 6.6892,-0.64029 -0.5996,-3.56579 2.4756,-1.93188 -5.3242,-4.69082 -7.1147,2.05382 -2.5952,-2.54168 0.6566,-3.08847 5.9759,0.28545 -6.5007,-6.06649 0.2041,-3.92492 4.67,0.61931 5.3772,6.36522 1.1257,-5.46155 3.2466,0.13349 2.7239,2.82937 -4.195,5.97291 4.4276,4.82336 2.421,-2.43773 3.622,1.52822 1.8042,-5.61959 -6.1971,-4.79388 1.377,-3.03745 3.4662,-1.00932 2.7421,5.27116 1.7767,-5.87261 0.2582,-1.422 3.65237,-2.55328 1.6139,4.25282 -0.898,1.30114 -2.27037,5.65547 6.15487,-2.23532 2.1499,2.68219 -1.3968,3.76131 -8.13127,-0.29014 -1.7355,5.25327 3.91107,0.84747 0.2138,3.53156 6.9546,-1.08549 1.0184,-7.64149 3.022,-0.0405 2.7378,1.95723 -3.3802,5.08191 9.1596,-1.89201 3.199,2.60177 -1.8854,2.86396 -9.0354,0.8626 5.2536,3.40019 -1.5778,2.628 -5.0311,-0.0605 -1.75,-5.51716 -8.0074,0.67762 1.0983,3.10266 -3.03117,2.22941 5.15777,5.51088 7.6035,-3.15357 2.1349,2.72567 -0.4532,3.15793 -6.627,0.1256 6.7539,5.32479 -0.2698,3.95111 -4.5895,-0.68923 -5.6226,-6.64372 -0.719,5.60023 -2.6899,0.39739 -2.58877,-2.39352 3.85757,-5.64964 -5.10687,-5.4935 -2.2461,1.42568 -3.131,-0.97106 -1.8042,5.61968 6.1376,4.96833 -1.6821,2.9334 -3.0395,0.42418 -3.0795,-4.94781 -2.0339,8.12302 -3.3696,1.72428 -1.8285,-3.79029 3.7538,-7.3413 -5.2126,2.80037 -2.5899,-3.22201 1.8756,-3.50057 6.5264,0.66815 1.81,-5.47155 -2.9846,-1.06735 -1.361,-2.99751 -5.9837,0.73492 -0.6012,6.41981 -4.2042,1.34207 -2.8431,-2.48022 2.8692,-4.9153 z"
       style="fill:#c8ffff;fill-opacity:0.58974364;fill-rule:evenodd;stroke:#00ebff;stroke-width:1.12182498px;stroke-linecap:butt;stroke-linejoin:round;stroke-miterlimit:4;stroke-dasharray:none;stroke-opacity:1" />
    <path
       inkscape:connector-curvature="0"
       id="path4325-1"
       d="m 921.75083,893.23243 -2.3423,-0.75931 1.5447,-2.20141 5.4854,-0.24714 -3.2694,-2.47774 0.6656,-2.1833 2.4988,-0.0434 2.435,4.13918 3.9574,-0.40351 -0.3547,-2.24716 1.4645,-1.21747 -3.1498,-2.95615 -4.2091,1.29431 -1.5353,-1.60176 0.3884,-1.94635 3.5354,0.17989 -3.8458,-3.8231 0.1207,-2.47349 2.7628,0.39029 3.1812,4.01136 0.666,-3.44186 1.9207,0.0841 1.6114,1.78307 -2.4818,3.76412 2.6194,3.03968 1.4323,-1.53625 2.1428,0.96308 1.0674,-3.54146 -3.6663,-3.0211 0.8147,-1.9142 2.0506,-0.63608 1.6222,3.32189 1.0511,-3.70092 0.1528,-0.89614 2.1608,-1.60908 0.9548,2.68013 -0.5313,0.81997 -1.3432,3.56408 3.6413,-1.4087 1.2719,1.69032 -0.8264,2.37037 -4.8105,-0.18285 -1.0267,3.31061 2.3138,0.53408 0.1265,2.22558 4.1144,-0.68407 0.6025,-4.81566 1.7878,-0.0255 1.6197,1.23345 -1.9998,3.20262 5.4189,-1.19235 1.8925,1.63964 -1.1154,1.80486 -5.3454,0.54361 3.1081,2.1428 -0.9334,1.65616 -2.9765,-0.0381 -1.0353,-3.47691 -4.7372,0.42703 0.6498,1.9553 -1.7933,1.40497 3.0514,3.47295 4.4983,-1.98738 1.263,1.71772 -0.2681,1.99013 -3.9206,0.0792 3.9956,3.35568 -0.1596,2.48999 -2.7152,-0.43436 -3.3263,-4.18687 -0.4254,3.52927 -1.5913,0.25043 -1.5316,-1.50839 2.2822,-3.5604 -3.0213,-3.462 -1.3288,0.89846 -1.8523,-0.61196 -1.0674,3.54152 3.6311,3.13103 -0.9952,1.84863 -1.7981,0.26732 -1.8219,-3.11811 -1.2033,5.11913 -1.9934,1.08664 -1.0818,-2.38864 2.2208,-4.62649 -3.0838,1.7648 -1.5322,-2.03051 1.1096,-2.20606 3.8611,0.42107 1.0708,-3.44817 -1.7657,-0.67264 -0.8052,-1.88903 -3.54,0.46314 -0.3557,4.04576 -2.4872,0.84578 -1.682,-1.56304 1.6974,-3.09762 z"
       style="fill:#c8ffff;fill-opacity:0.58974364;fill-rule:evenodd;stroke:#00ebff;stroke-width:1.12182498px;stroke-linecap:butt;stroke-linejoin:round;stroke-miterlimit:4;stroke-dasharray:none;stroke-opacity:1" />
    <path
       inkscape:connector-curvature="0"
       id="path4327"
       d="m 985.96074,869.44712 0.99959,5.92251 5.88011,1.96819 4.73666,-2.30911 -0.68873,-6.67883 -5.81074,-2.20163 z"
       style="fill:#ffffff;fill-opacity:0.58547008;fill-rule:evenodd;stroke:#00ebff;stroke-width:1.12182498px;stroke-linecap:butt;stroke-linejoin:round;stroke-miterlimit:4;stroke-dasharray:none;stroke-opacity:1" />
    <path
       inkscape:connector-curvature="0"
       id="path4327-1"
       d="m 935.44377,888.13664 0.81759,3.06818 3.24453,0.77862 2.42819,-1.41899 -0.68702,-3.47907 -3.21847,-0.90426 z"
       style="fill:#ffffff;fill-opacity:0.5726496;fill-rule:evenodd;stroke:#00ebff;stroke-width:1.12182498px;stroke-linecap:butt;stroke-linejoin:round;stroke-miterlimit:4;stroke-dasharray:none;stroke-opacity:1" />
  </g>
</svg>
