<?xml version="1.0" encoding="UTF-8" standalone="no"?>
<!-- Created with Inkscape (http://www.inkscape.org/) -->

<svg
   xmlns:dc="http://purl.org/dc/elements/1.1/"
   xmlns:cc="http://creativecommons.org/ns#"
   xmlns:rdf="http://www.w3.org/1999/02/22-rdf-syntax-ns#"
   xmlns:svg="http://www.w3.org/2000/svg"
   xmlns="http://www.w3.org/2000/svg"
   xmlns:xlink="http://www.w3.org/1999/xlink"
   xmlns:sodipodi="http://sodipodi.sourceforge.net/DTD/sodipodi-0.dtd"
   xmlns:inkscape="http://www.inkscape.org/namespaces/inkscape"
   width="400mm"
   height="150mm"
   viewBox="0 0 1417.3228 531.49607"
   id="svg2"
   version="1.1"
   inkscape:version="0.91 r13725"
   sodipodi:docname="header_background.svg">
  <defs
     id="defs4">
    <radialGradient
       inkscape:collect="always"
       xlink:href="#linearGradient4262"
       id="radialGradient4254"
       cx="-523.23682"
       cy="-20.172329"
       fx="-523.23682"
       fy="-20.172329"
       r="194.33667"
       gradientTransform="matrix(-2.6611278,3.5935534,-2.8551918,-2.1142652,-559.20467,2802.9861)"
       gradientUnits="userSpaceOnUse" />
    <linearGradient
       inkscape:collect="always"
       id="linearGradient4262">
      <stop
         style="stop-color:#ece7b9;stop-opacity:1"
         offset="0"
         id="stop4250" />
      <stop
         style="stop-color:#00ff00;stop-opacity:0.11111111"
         offset="1"
         id="stop4252" />
    </linearGradient>
    <radialGradient
       inkscape:collect="always"
       xlink:href="#linearGradient4264"
       id="radialGradient4270"
       cx="658.27991"
       cy="264.03082"
       fx="658.27991"
       fy="264.03082"
       r="194.33667"
       gradientTransform="matrix(1.1964407,-0.19199311,0.05319074,0.33146806,-143.35798,1041.5351)"
       gradientUnits="userSpaceOnUse" />
    <linearGradient
       inkscape:collect="always"
       id="linearGradient4264">
      <stop
         style="stop-color:#000000;stop-opacity:1;"
         offset="0"
         id="stop4266" />
      <stop
         style="stop-color:#000000;stop-opacity:0;"
         offset="1"
         id="stop4268" />
    </linearGradient>
    <radialGradient
       inkscape:collect="always"
       xlink:href="#linearGradient4160"
       id="radialGradient4150"
       cx="48.841061"
       cy="304.35144"
       fx="48.841061"
       fy="304.35144"
       r="194.33667"
       gradientTransform="matrix(-4.0669106,-2.1544988,11.346164,-21.417473,-2290.06,7450.2297)"
       gradientUnits="userSpaceOnUse" />
    <linearGradient
       id="linearGradient4160"
       inkscape:collect="always">
      <stop
         id="stop4162"
         offset="0"
         style="stop-color:#55adb9;stop-opacity:0.81176472" />
      <stop
         id="stop4164"
         offset="1"
         style="stop-color:#ffffd7;stop-opacity:1" />
    </linearGradient>
  </defs>
  <sodipodi:namedview
     id="base"
     pagecolor="#ffffff"
     bordercolor="#666666"
     borderopacity="1.0"
     inkscape:pageopacity="0.0"
     inkscape:pageshadow="2"
     inkscape:zoom="0.49497475"
     inkscape:cx="711.35308"
     inkscape:cy="235.13527"
     inkscape:document-units="px"
     inkscape:current-layer="layer1"
     showgrid="false"
     inkscape:window-width="1366"
     inkscape:window-height="706"
     inkscape:window-x="-8"
     inkscape:window-y="-8"
     inkscape:window-maximized="1" />
  <metadata
     id="metadata7">
    <rdf:RDF>
      <cc:Work
         rdf:about="">
        <dc:format>image/svg+xml</dc:format>
        <dc:type
           rdf:resource="http://purl.org/dc/dcmitype/StillImage" />
        <dc:title></dc:title>
      </cc:Work>
    </rdf:RDF>
  </metadata>
  <g
     inkscape:label="Layer 1"
     inkscape:groupmode="layer"
     id="layer1"
     transform="translate(0,-520.86614)">
    <path
       inkscape:connector-curvature="0"
       style="fill:url(#radialGradient4150);fill-opacity:1;stroke:#9ab387;stroke-width:1px;stroke-linejoin:round;stroke-opacity:0"
       d="m 1398.235,967.79832 c 0,0 -0.06,3.2941 -0.1758,4.93666 -0.1155,1.64238 -0.2891,3.28177 -0.5201,4.91218 -0.2305,1.63048 -0.5194,3.25391 -0.8643,4.86444 -0.3448,1.61044 -0.7466,3.20997 -1.204,4.79261 -0.4572,1.5826 -0.9706,3.15032 -1.5379,4.69743 -0.5677,1.54723 -1.1896,3.0758 -1.8647,4.57996 -0.6746,1.50415 -1.403,2.98578 -2.1819,4.4395 -0.7788,1.4537 -1.6095,2.8811 -2.4886,4.2774 -0.8792,1.3964 -1.8078,2.7631 -2.7831,4.0953 -0.9751,1.332 -1.9978,2.6308 -3.0642,3.8921 -1.0663,1.2612 -2.1777,2.4863 -3.3302,3.6706 -1.1525,1.1843 -2.3475,2.3294 -3.5803,3.4311 -1.2331,1.1017 -2.5055,2.1615 -3.8129,3.1752 -1.3074,1.0136 -2.6512,1.9824 -4.0268,2.9031 -1.3754,0.9207 -2.7838,1.7945 -4.2206,2.6177 -1.4369,0.8232 -2.9036,1.5969 -4.3949,2.3187 -1.4911,0.7217 -3.0085,1.3922 -4.5468,2.009 -1.5382,0.6168 -3.0992,1.1807 -4.677,1.6895 -1.578,0.5088 -3.1746,0.9632 -4.7842,1.3616 -1.6099,0.3982 -3.2348,0.7408 -4.8687,1.0268 -1.6339,0.2858 -3.2789,0.5156 -4.9286,0.6874 -1.6501,0.172 -4.9649,0.3432 -4.9649,0.3432 l -1242.073099,0.043 c 0,0 -3.319143,-0.058 -4.974148,-0.1733 -1.654995,-0.115 -3.307027,-0.287 -4.949927,-0.5162 -1.642921,-0.2294 -3.278777,-0.5154 -4.901547,-0.8577 -1.622822,-0.3422 -3.234572,-0.7411 -4.829376,-1.1949 -1.594794,-0.4538 -3.174572,-0.9633 -4.733576,-1.5263 -1.558983,-0.5632 -3.099155,-1.1806 -4.614756,-1.8503 -1.515696,-0.6696 -3.008605,-1.3924 -4.473475,-2.1654 -1.46487,-0.773 -2.90343,-1.5972 -4.310397,-2.4697 -1.406968,-0.8725 -2.784072,-1.7943 -4.126273,-2.762 -1.342243,-0.9678 -2.651184,-1.9825 -3.922059,-3.0408 -1.270959,-1.0583 -2.505401,-2.1614 -3.698792,-3.3052 -1.193454,-1.1436 -2.347322,-2.3295 -3.457471,-3.553 -1.110117,-1.2237 -2.177854,-2.4864 -3.199257,-3.7839 -1.021445,-1.2974 -1.997768,-2.6312 -2.925511,-3.9961 -0.927701,-1.3649 -1.808034,-2.7629 -2.637519,-4.1887 -0.829559,-1.4258 -1.609367,-2.8814 -2.336629,-4.36129 -0.727303,-1.47982 -1.402932,-2.98575 -2.024413,-4.51235 -0.621529,-1.5266 -1.189621,-3.07567 -1.702284,-4.64152 -0.512664,-1.56589 -0.970547,-3.15051 -1.371892,-4.74804 -0.401408,-1.59757 -0.746786,-3.21004 -1.034852,-4.83152 -0.288081,-1.62146 -0.519261,-3.25389 -0.692687,-4.89134 -0.17336,-1.63733 -0.347276,-4.92707 -0.347276,-4.92707 l -0.04352,-356.19695 c 0,0 0.05789,-3.29383 0.173599,-4.93626 0.115714,-1.64248 0.289336,-3.28198 0.520259,-4.91255 0.230883,-1.63028 0.519352,-3.25361 0.864292,-4.8641 0.344936,-1.61048 0.74672,-3.21009 1.204083,-4.79298 0.457245,-1.58249 0.970557,-3.15018 1.538038,-4.69742 0.567385,-1.54697 1.189604,-3.07537 1.864474,-4.5796 0.674738,-1.50395 1.402892,-2.98558 2.181867,-4.43949 0.778807,-1.45361 1.609302,-2.8813 2.488613,-4.27779 0.879042,-1.39607 1.807908,-2.76268 2.783197,-4.09487 0.975054,-1.33186 1.997649,-2.63097 3.06425,-3.89246 1.066259,-1.26107 2.177731,-2.48611 3.330394,-3.67063 1.152319,-1.18416 2.347189,-2.32926 3.580299,-3.43109 1.232753,-1.1015 2.505222,-2.16109 3.81275,-3.1749 1.307199,-1.01355 2.65097,-1.98267 4.026623,-2.9035 1.375217,-0.92055 2.783945,-1.79397 4.220903,-2.61728 1.436641,-0.82312 2.90326,-1.59714 4.394609,-2.31901 1.490985,-0.7217 3.008455,-1.39224 4.546889,-2.00905 1.538093,-0.61667 3.099025,-1.18037 4.677013,-1.68917 1.577743,-0.50872 3.174478,-0.96315 4.784371,-1.36153 1.609693,-0.39834 3.234479,-0.74127 4.868456,-1.02717 1.633767,-0.28588 3.278693,-0.5153 4.928732,-0.68713 1.649933,-0.17182 4.965069,-0.34321 4.965069,-0.34321 l 1242.072656,-0.0425 c 0,0 3.3193,0.0584 4.9743,0.17335 1.655,0.11501 3.307,0.28712 4.9499,0.51623 1.643,0.22913 3.2788,0.51539 4.9015,0.85767 1.6229,0.34233 3.2347,0.7411 4.8293,1.19489 1.5949,0.45386 3.1746,0.96337 4.7335,1.52641 1.5591,0.56317 3.0994,1.18058 4.615,1.85019 1.5158,0.66974 3.0089,1.39251 4.4735,2.16543 1.465,0.77307 2.9035,1.59739 4.3103,2.46973 1.4072,0.87262 2.7845,1.79436 4.1265,2.76199 1.3424,0.96781 2.6512,1.98266 3.9219,3.04079 1.2711,1.05846 2.5054,2.16158 3.6985,3.30512 1.1936,1.14393 2.3474,2.3298 3.4575,3.55316 1.1104,1.22378 2.1783,2.48653 3.1996,3.78384 1.0216,1.29759 1.9977,2.6314 2.9253,3.99614 0.928,1.36515 1.8085,2.76291 2.6379,4.18862 0.8296,1.426 1.609,2.88169 2.336,4.3613 0.7273,1.48006 1.4032,2.98595 2.0247,4.5124 0.6216,1.52671 1.1895,3.07579 1.7022,4.64152 0.5127,1.56599 0.9707,3.15056 1.372,4.748 0.4014,1.59768 0.7466,3.21017 1.0347,4.83156 0.2881,1.62154 0.5196,3.25392 0.6928,4.89134 0.1732,1.63738 0.3458,4.92705 0.3458,4.92705 z"
       id="path4-5"
       sodipodi:nodetypes="caaaaaaaaaaaaaaaaaaaaaccaaaaaaaaaaaaaaaaaaaaaccaaaaaaaaaaaaaaaaaaaaaccaaaaaaaaaaaaaaaaaaaaacc" />
    <path
       style="fill:#ffffff;fill-opacity:0.23076926;fill-rule:evenodd;stroke:none;stroke-width:1px;stroke-linecap:butt;stroke-linejoin:miter;stroke-opacity:1"
       d="m 784.56213,1017.6283 102.69208,-171.98918 58.5106,24.48659 25.07597,-13.99234 45.37552,24.48659 93.1393,-39.64495 45.3756,179.56839 z"
       id="path4168"
       inkscape:connector-curvature="0"
       sodipodi:nodetypes="cccccccc" />
    <path
       sodipodi:nodetypes="caaaaaaaaaaaaaaaaaaaaaccaaaaaaaaaaaaaaaaaaaacccaaacac"
       id="path4238"
       d="m 1398.235,967.79832 c -0.024,1.64639 -0.06,3.2941 -0.1758,4.93666 -0.1155,1.64238 -0.2891,3.28177 -0.5201,4.91218 -0.2305,1.63048 -0.5194,3.25391 -0.8643,4.86444 -0.3448,1.61044 -0.7466,3.20997 -1.204,4.79261 -0.4572,1.5826 -0.9706,3.15032 -1.5379,4.69743 -0.5677,1.54723 -1.1896,3.0758 -1.8647,4.57996 -0.6746,1.50415 -1.403,2.98578 -2.1819,4.4395 -0.7788,1.4537 -1.6095,2.8811 -2.4886,4.2774 -0.8792,1.3964 -1.8078,2.7631 -2.7831,4.0953 -0.9751,1.332 -1.9978,2.6308 -3.0642,3.8921 -1.0663,1.2612 -2.1777,2.4863 -3.3302,3.6706 -1.1525,1.1843 -2.3475,2.3294 -3.5803,3.4311 -1.2331,1.1017 -2.5055,2.1615 -3.8129,3.1752 -1.3074,1.0136 -2.6512,1.9824 -4.0268,2.9031 -1.3754,0.9207 -2.7838,1.7945 -4.2206,2.6177 -1.4369,0.8232 -2.9036,1.5969 -4.3949,2.3187 -1.4911,0.7217 -3.0085,1.3922 -4.5468,2.009 -1.5382,0.6168 -3.0992,1.1807 -4.677,1.6895 -1.578,0.5088 -3.1746,0.9632 -4.7842,1.3616 -1.6099,0.3982 -3.2348,0.7408 -4.8687,1.0268 -1.6339,0.2858 -3.2789,0.5156 -4.9286,0.6874 -1.6501,0.172 -4.9649,0.3432 -4.9649,0.3432 l -1242.073099,0.043 c 0,0 -3.319143,-0.058 -4.974148,-0.1733 -1.654995,-0.115 -3.307027,-0.287 -4.949927,-0.5162 -1.642921,-0.2294 -3.278777,-0.5154 -4.901547,-0.8577 -1.622822,-0.3422 -3.234572,-0.7411 -4.829376,-1.1949 -1.594794,-0.4538 -3.174572,-0.9633 -4.733576,-1.5263 -1.558983,-0.5632 -3.099155,-1.1806 -4.614756,-1.8503 -1.515696,-0.6696 -3.008605,-1.3924 -4.473475,-2.1654 -1.46487,-0.773 -2.90343,-1.5972 -4.310397,-2.4697 -1.406968,-0.8725 -2.784072,-1.7943 -4.126273,-2.762 -1.342243,-0.9678 -2.651184,-1.9825 -3.922059,-3.0408 -1.270959,-1.0583 -2.505401,-2.1614 -3.698792,-3.3052 -1.193454,-1.1436 -2.347322,-2.3295 -3.457471,-3.553 -1.110117,-1.2237 -2.177854,-2.4864 -3.199257,-3.7839 -1.021445,-1.2974 -1.997768,-2.6312 -2.925511,-3.9961 -0.927701,-1.3649 -1.808034,-2.7629 -2.637519,-4.1887 -0.829559,-1.4258 -1.609367,-2.8814 -2.336629,-4.36129 -0.727303,-1.47982 -1.402932,-2.98575 -2.024413,-4.51235 -0.621529,-1.5266 -1.189621,-3.07567 -1.702284,-4.64152 -0.512664,-1.56589 -0.970547,-3.15051 -1.371892,-4.74804 -0.401408,-1.59757 -0.746786,-3.21004 -1.034852,-4.83152 -0.288081,-1.62146 -0.692687,-4.89134 -0.692687,-4.89134 l -0.347276,-4.92707 -0.04352,-10.38013 c 0,0 155.283996,14.9169 233.196236,16.30852 228.30031,4.07774 456.28956,-26.30162 684.60753,-23.35462 114.95047,1.48372 229.37817,25.0614 344.25237,20.65059 40.3852,-1.55061 120.098,-16.51818 120.098,-16.51818 0,0 0.1023,7.21811 0.045,10.82655 z"
       style="fill:url(#radialGradient4254);fill-opacity:1;stroke:url(#radialGradient4270);stroke-width:1px;stroke-linejoin:round;stroke-opacity:0"
       inkscape:connector-curvature="0" />
    <path
       style="fill:#ffffff;fill-opacity:0.23076926;fill-rule:evenodd;stroke:none;stroke-width:1px;stroke-linecap:butt;stroke-linejoin:miter;stroke-opacity:1"
       d="m 888.68902,653.80007 66.67006,-12.12183 41.41631,-1.01015 6.06091,-30.30458 -42.42645,4.04061 -64.64977,25.25381 z"
       id="path4172"
       inkscape:connector-curvature="0" />
    <path
       style="fill:#ffffff;fill-opacity:0.23076926;fill-rule:evenodd;stroke:none;stroke-width:1px;stroke-linecap:butt;stroke-linejoin:miter;stroke-opacity:1"
       d="m 1086.679,615.41427 -5.0508,27.27412 43.4366,3.03046 66.67,22.22335 8.0813,-19.19289 -65.6599,-31.31473 z"
       id="path4174"
       inkscape:connector-curvature="0" />
    <path
       style="fill:#ffffff;fill-opacity:0.23076926;fill-rule:evenodd;stroke:none;stroke-width:1px;stroke-linecap:butt;stroke-linejoin:miter;stroke-opacity:1"
       d="m 965.70571,758.40778 -56.56854,12.12183 26.26396,3.03046 -13.13198,12.12183 28.28427,-2.0203 -1.01015,10.10152 43.43659,-25.25381 33.33504,28.28427 1.0102,-18.18275 47.4771,22.22336 -15.1522,-21.2132 53.538,15.15228 -72.7309,-37.37564 1.5573,-10.45432 -47.01424,19.54569 -27.27415,-22.22335 z"
       id="path4176"
       inkscape:connector-curvature="0"
       sodipodi:nodetypes="ccccccccccccccccc" />
    <path
       style="fill:#ffff94;fill-opacity:0.23076926;fill-rule:evenodd;stroke:none;stroke-width:1px;stroke-linecap:butt;stroke-linejoin:miter;stroke-opacity:1"
       d="m 907.62194,674.56512 40.91118,-11.61675 40.91118,-2.0203 12.6269,13.13197 -20.20305,-4.04061 -30.80965,-1.01015 z"
       id="path4187"
       inkscape:connector-curvature="0"
       sodipodi:nodetypes="ccccccc" />
    <path
       style="fill:#ffff94;fill-rule:evenodd;stroke:none;stroke-width:1.00000009;stroke-linecap:butt;stroke-linejoin:round;stroke-opacity:1;stroke-miterlimit:4;stroke-dasharray:none;fill-opacity:0.23076923"
       d="m 910.14732,678.35319 37.12311,9.84899 31.31473,3.53553 22.22334,-6.56599 -21.9708,3.53554 -29.7995,-2.52539 z"
       id="path4189"
       inkscape:connector-curvature="0" />
    <path
       style="fill:#ff7263;fill-rule:evenodd;stroke:none;stroke-width:1px;stroke-linecap:butt;stroke-linejoin:miter;stroke-opacity:1;fill-opacity:0.23076926"
       d="m 950.80596,669.7669 1.38896,10.35406 5.17704,5.68211 6.56599,0.50507 1.51523,-8.9651 5.3033,-4.67196 3.28299,4.9245 -2.77792,8.83883 5.42957,0.12627 6.31346,-7.70241 -1.26269,-7.82868 z"
       id="path4191"
       inkscape:connector-curvature="0" />
    <path
       sodipodi:nodetypes="ccccccc"
       inkscape:connector-curvature="0"
       id="path4193"
       d="m 1160.6155,674.56512 -40.9112,-11.61675 -40.9112,-2.0203 -12.6269,13.13197 20.2031,-4.04061 30.8096,-1.01015 z"
       style="fill:#ffff94;fill-opacity:0.23076926;fill-rule:evenodd;stroke:none;stroke-width:1px;stroke-linecap:butt;stroke-linejoin:miter;stroke-opacity:1" />
    <path
       inkscape:connector-curvature="0"
       id="path4195"
       d="m 1152.5343,680.12096 -38.6384,11.74302 -30.0521,0.88388 -20.9606,-7.82868 20.7081,4.79823 28.5368,0.12626 z"
       style="fill:#ffff94;fill-opacity:0.23076926;fill-rule:evenodd;stroke:none;stroke-width:1.00000012;stroke-linecap:butt;stroke-linejoin:round;stroke-miterlimit:4;stroke-dasharray:none;stroke-opacity:1"
       sodipodi:nodetypes="ccccccc" />
    <path
       inkscape:connector-curvature="0"
       id="path4197"
       d="m 1117.4314,669.7669 -3.9143,12.12183 -9.9753,6.56599 -5.8083,0.25253 2.5253,-9.59644 -2.7779,-6.43973 -5.8084,6.69227 -0.2524,8.83883 -5.4296,0.12627 -3.2831,-7.70241 3.7881,-9.59645 z"
       style="fill:#ff7263;fill-opacity:0.23076926;fill-rule:evenodd;stroke:none;stroke-width:1px;stroke-linecap:butt;stroke-linejoin:miter;stroke-opacity:1"
       sodipodi:nodetypes="cccccccccccc" />
  </g>
</svg>
